<svg version="1.1" id="Capa_1" xmlns="http://www.w3.org/2000/svg" xmlns:xlink="http://www.w3.org/1999/xlink" x="0px" y="0px"
	 viewBox="0 0 326.3 353.9" style="enable-background:new 0 0 326.3 353.9;" xml:space="preserve">
<style type="text/css">
	.st0{fill:#FFB300;}
	.st1{fill:#196675;}
	.st2{fill:#4CAF50;}
	.st3{fill:#FF3B3B;}
</style>
<g id="Capa_1_00000083062430678251419600000009388980886982499519_">
</g>
<path class="st0" d="M11.3,164.9c20.1-12.5,40.1-24.9,60.2-37.4c39.6,0,79.1,0,118.7,0c0.8,0,1.6,0.2,1.9,0.7
	c0.4,0.9-0.8,2.3-1.3,2.9c-29.6,33.3-59.1,66.6-88.7,99.9c32.5-3.7,65.1-7.5,97.6-11.2c10.1-0.9,15.3-1,15.4-0.2
	c0.1,0.7-4.3,2.2-13.3,4.4c-59,18.4-118,36.8-177.1,55.2c-3.6,1.6-5.6,2-6.1,1.3c-1-1.4,5.2-8,6.5-9.3c0.1-0.1,0.2-0.2,0.2-0.2
	c2.6-2.7,28.4-33.7,91.5-110.6c-37.5,2.5-104.6,7.1-105.4,7c-0.3,0-0.6-0.1-0.6-0.1c-0.2-0.1-0.7-0.3-0.8-0.5
	C9.7,166.2,11.2,165,11.3,164.9z"/>
<path class="st1" d="M86.8,117.3c25.1-18.5,50.1-37,75.2-55.6c0.3-0.3,2.6-2.5,5.8-2.1c2,0.2,3.4,1.3,3.9,1.8
	c23.6,19,47.2,38.1,70.7,57.1c0.2,0.2,1.2,0.9,1.9,2.1c0.8,1.2,1,2.5,1.1,3.5c0,70.7,0.1,122,0.3,125.9c0,0.6,0.2,3.2-1.4,5.1
	c-0.8,1-1.8,1.5-2.5,1.8c-26.7,0-53.4,0.1-80.2,0.1c-4.9,2.1-8.1,6.9-7.9,12c0.3,6.8,6.3,10.2,6.6,10.4c26,0.1,52,0.1,78,0.2
	c1,0,4.1,0.1,6.8-1.8c1.6-1.1,2.4-2.5,2.9-3.4c1.9-3.1,0.8-4.2,2.7-7.6c0.3-0.6,1.3-2.2,2.9-3.9c1.1-1.1,2.1-1.9,2.6-2.2
	c1.3-0.9,2.2-1.3,3.2-1.8c3.4-1.6,5.4-2.6,6.8-4.2c0.7-0.8,1.6-2.3,2-4.6c0-44,0-88,0-132c-0.1-1.6-0.4-4.3-1.8-7.3
	c-1.3-2.9-3-4.8-4.2-6c-44.8-37-78.3-63.4-85.3-67.6c-1.3-0.8-4.8-2.9-9.6-3c-4.9-0.1-8.5,1.7-9.9,2.5C123.2,62,89,87.4,54.9,112.7
	c-0.9,0.3-1.6,1.2-1.7,2.2c-0.1,1.1,0.5,2.1,1.5,2.5C65.5,117.3,76.2,117.3,86.8,117.3z"/>
<circle class="st0" cx="298.2" cy="239.6" r="18.8"/>
<circle class="st2" cx="275.6" cy="281.3" r="17.5"/>
<circle class="st3" cx="239.3" cy="304.1" r="16"/>
</svg>